<svg id="Layer_1" data-name="Layer 1" xmlns="http://www.w3.org/2000/svg" viewBox="0 0 561.03 191.81"><defs><style>.cls-1{fill:#fff;}</style></defs><title>mountains</title><path class="cls-1" d="M305,280.6c3.81,4.62,7.59,8.71,10.81,13.21,3.67,5.14,6.68,10.75,10.28,15.94,4.37,6.29,10,11.21,17.47,13.49,3.08.94,4.86,2.62,5.09,5.91.1,1.32.74,2.6.79,3.91.35,8.9,5.88,12.81,13.77,14.5a16.62,16.62,0,0,0,1.95.44c7.3.67,12.59,3.69,15.62,10.95,2.69,6.45,9,8.18,15.41,9.66,9.66,2.22,16.76-.52,21.9-9.08,1.52-2.54,4.16-4.4,5.49-5.76,8.38,7.05,17.24,12.37,23.08,20,5.95,7.78,13.31,10.52,21.74,13.2,3.83,1.23,7.34,4.34,10.27,7.31,3.34,3.39,6.33,4.63,10.37,1.58,3.28-2.46,5.59-1.84,7.35,2,1.58,3.47,3.79,6.66,5.47,10.09,4.2,8.55,9.89,15.49,18.23,20.6,4.7,2.88,8.16,7.75,12.31,11.57,14.88,13.71,30.76,25.86,50.31,32.27-23.39-6.26-43.8-17.61-60.39-35.53l-1.19.51c1,2.65,1.89,5.37,3.08,7.93,1.3,2.81,2.9,5.48,4.36,8.21l-1.33,1.3c-6-4.72-12.16-9.23-17.94-14.19-10-8.56-20.66-16.55-27.35-28.19-2.05-3.57-5-4.7-8.31-5.4-1.08-.22-3.36,1-3.62,1.93-1.37,5.16-2.5,10.49,1.13,15.29,4.81,6.36,9.78,12.61,14.57,19,2.12,2.82,4,5.83,5.93,8.75l-1.34.91c-3.34-4.49-6.6-9.05-10-13.46A41.7,41.7,0,0,0,467.46,428c-3.9-2.17-5.75-8.19-8.27-12.62-3.78-6.68-7.36-13.47-11.23-20.58l-2.46,3L425.73,360c-5.25,5.16-11.27,9.19-10.37,17.72.74,7.08-3.81,12-8.09,18.47,1.87-8,3.45-14.86,5-21.69l-1.35-.79c-3.57,2.45-7.74,4.35-10.56,7.47-4.32,4.77-7.79,10.33-11.39,15.71-.5.75-.06,2.72.63,3.58,2.37,2.95,4.63,6.29,7.69,8.34a98.21,98.21,0,0,0,17.46,9.59c3.47,1.42,7.81,1.25,11.69,1,5.19-.36,9.18.6,12.67,5,10.69,13.36,23.62,24.42,37.6,34.14,5.63,3.92,12.33,5.39,19.48,4.87,4-.3,8.16.73,12.15,1.87-11.93,3.52-29.29-1.25-38.58-8.76C457.13,446.22,444,436.55,431,426.74a7.62,7.62,0,0,0-4.18-1.16c-7.32-.11-14.65-.05-22.81-.05,2.87,2.83,5.45,6,8.59,8.34a88.94,88.94,0,0,0,11.11,6.69c6.43,3.53,8.64,9.85,11.71,15.62l-1.17.8a17.35,17.35,0,0,1-2.12-3.48c-2.13-6.74-7.49-10.06-13.46-12.42-10-4-16.26-11.75-21.79-20.47a15.85,15.85,0,0,0-5.42-5.35c-4.15-2.27-6.64-5.17-7-10.05-1-13.87-5.4-26.52-14.1-37.53-1.1-1.39-2.19-2.79-4-5.15v6.6l-3.81-.31c3.05,10.05,5.51,19.87,9.06,29.29s8.18,18.45,11.84,28c-.84-1.07-1.71-2.12-2.54-3.21-5.4-7.16-10.7-14.41-16.23-21.48a25.3,25.3,0,0,1-5.3-13.63c-.61-5.68-2.92-11.19-4.69-16.7a3.74,3.74,0,0,0-2.43-2.18c-4.71-.79-5.9-4.3-6.92-8.14-2-7.47-4-14.95-6.22-22.35-.29-1-2-1.49-3.05-2.22l-1.53,1c1.2,10.12,2.39,20.23,3.42,29-1.85-3-4.78-7.25-7-11.8a13.49,13.49,0,0,1-.93-7.28c1.36-11-2.24-19.66-10.5-27.05-4.76-4.26-8.48-9.68-13-15-3.89,11.79-10,22.54-10.71,35.42-.6,10.78-3.3,21.44-6.23,32,0-3.7,0-7.41,0-11.11,0-2,.51-4.31-.31-5.91-1.16-2.24-3.34-4-5.08-5.9-1.42,1.51-3.5,2.78-4.15,4.58C274.69,368.5,265,379,252.82,387.85c-2.63,1.92-4.57,5.79-5.32,9.11-1.88,8.24-4.69,15.29-12.45,20.05-3.64,2.24-6,6.58-9.73,9.48,2.2-3.23,4.47-6.43,6.61-9.71,2.25-3.46,4.94-6.78,6.42-10.56s1.66-8,2.42-12.11c-2.61.41-5.22.67-7.75,1.25-8.5,2-14.5,6.17-16.73,15.51s-7.47,12.73-20,14.41c11-5.43,15.27-14.47,18.91-23.85,1.68-4.34,4.88-5.68,8.94-6.91,7-2.12,13.82-5,20.56-7.46-.41-1.63-.38-2-.57-2.21-8.41-7.34-16.9-14.59-25.19-22.06-1.15-1-1.55-3.12-1.91-4.81-.74-3.55-.71-7.44-5.34-9a12.18,12.18,0,0,0,.8,11.17c7.38,12.88,7.77,14.81,6.44,25.21a23.4,23.4,0,0,1-1.2-4c-.77-8.33-3.28-15.91-8.83-22.4a6.49,6.49,0,0,1-1.4-4.64c1.44-9.05-4.46-14.4-10.31-21-3,10.45-6.41,20.17-8.37,30.17-1.31,6.68-5,11.18-9.53,16.83,2-5.15,3.58-9.27,5.17-13.4l-1.26-.52c-12.48,11.2-18.57,27-27.91,40.41l-1.13-.68c1.35-2.29,2.71-4.58,4-6.89,3.22-5.61.25-14.35-5.24-15.82-2.66-.72-4.29-.22-5.64,2.35-5,9.57-10.33,19-15.34,28.57-2,3.88-4.2,6.48-9.12,7.25-3.27.51-6.34,3.58-9.09,6-4.22,3.67-7.86,8-12.17,11.54a64,64,0,0,1-13.08,8c5.34-4.61,10.58-9.35,16.06-13.79,3-2.46,3.22-4.92,1.65-8.23-2-4.2-3.64-8.57-5.8-13.74-2.59,2.41-5.11,4.44-7.25,6.82a133.42,133.42,0,0,0-8.57,10.41c-15.65,21.34-38.3,31-62.94,37.46a8.47,8.47,0,0,1,1.21-.88c.59-.3,1.24-.46,1.84-.74,6.94-3.24,13.89-6.45,20.8-9.74,10.49-5,19.43-11.6,26.57-21.22,6.7-9,15.19-16.75,22.83-25.09,2.45-2.67,5.14-3.21,8.52-2,3,1.08,6.31,1.28,9.07,2.69,4.81,2.44,8.4.86,11.4-2.72,7-8.4,13.79-17,20.85-25.4,1.57-1.86,4-3,5.94-4.55,2.13-1.7,4.86-3.11,6.11-5.33,3.15-5.65,5.36-11.83,8.48-17.51,1.68-3.05,4.34-5.61,6.78-8.18,3.18-3.36,6.79-6.31,9.82-9.79,4.15-4.76,8-9.82,11.85-14.82,1.77-2.29,3.34-2.6,5.79-.71,8.37,6.45,17.68,11.5,23.72,21,2.93,4.59,8.83,7.37,13.59,10.66.86.59,3.26.2,4.07-.61,4.7-4.7,9.29-9.52,13.62-14.56,3.17-3.7,6.13-7.05,10.52-9.88,5.57-3.58,9.93-9.82,13.38-15.74C285.07,299.56,293.84,290.21,305,280.6Zm-42.7,87.85,1.67-.22c3.31-5.7,6.93-11.25,9.86-17.14a30.88,30.88,0,0,1,10.59-12.19,13.67,13.67,0,0,0,4.94-7.46,87,87,0,0,1,8.89-23.07c3.1-5.36,4-12,5.85-18.08l-1.37-.61c-1,.79-2,1.57-2.95,2.39-10.41,9-14.5,21.66-19.33,33.77-2.58,6.45-4.24,9.77-8.58,11.53l4.65-10c-14.49,6-20.15,19.94-31.59,30.55C253.4,358.71,259.2,361.47,262.26,368.45Zm-66.18-42-1.87-1.09c-3.79,5.63-7.53,11.31-11.43,16.87-1.21,1.71-2.6,3.69-4.38,4.52-4.87,2.27-7.61,6.16-10.06,10.66-3.94,7.21-8.2,14.24-12.27,21.26,6,.73,11.55-2.06,15.94-6.78,7.56-8.13,13.71-17.16,15.62-28.49a22.11,22.11,0,0,1,2.14-6.6C191.66,333.28,194,329.93,196.08,326.49Z" transform="translate(-21.64 -280.6)"/></svg>